<svg xmlns="http://www.w3.org/2000/svg" viewBox="0 0 40 40" fill="none" role="img" aria-label="OjaDeck">
  <defs>
    <linearGradient id="ojadeck-badge-c" x1="6" y1="3" x2="34" y2="37" gradientUnits="userSpaceOnUse">
      <stop stop-color="#23b06f"/>
      <stop offset="1" stop-color="#126b45"/>
    </linearGradient>
  </defs>
  <rect x="1" y="1" width="38" height="38" rx="11" fill="url(#ojadeck-badge-c)"/>
  <path d="M9 15a5 5 0 0 1 5-5h12a5 5 0 0 1 5 5v6a5 5 0 0 1-5 5h-5.6l-5.2 4.35A.9.9 0 0 1 14 30V26a5 5 0 0 1-5-5v-6Z" fill="#fff"/>
  <circle cx="15" cy="18" r="2" fill="#159c62"/>
  <circle cx="20" cy="18" r="2" fill="#159c62"/>
  <circle cx="25" cy="18" r="2" fill="#159c62"/>
</svg>
