<svg xmlns="http://www.w3.org/2000/svg" viewBox="0 0 40 40" fill="none" role="img" aria-label="OjaDeck">
  <defs>
    <linearGradient id="ojadeck-badge" x1="6" y1="3" x2="34" y2="37" gradientUnits="userSpaceOnUse">
      <stop stop-color="#23b06f"/>
      <stop offset="1" stop-color="#126b45"/>
    </linearGradient>
  </defs>
  <rect x="1" y="1" width="38" height="38" rx="11" fill="url(#ojadeck-badge)"/>
  <rect x="1.5" y="1.5" width="37" height="37" rx="10.5" stroke="#fff" stroke-opacity="0.16"/>
  <rect x="13" y="9" width="14" height="20" rx="3" fill="#fff" opacity="0.4" transform="rotate(-16 20 29)"/>
  <rect x="13" y="9" width="14" height="20" rx="3" fill="#fff" opacity="0.62" transform="rotate(16 20 29)"/>
  <path d="M13 12.2A3.2 3.2 0 0 1 16.2 9h7.6A3.2 3.2 0 0 1 27 12.2v13.6a3.2 3.2 0 0 1-3.2 3.2h-4.1l-4.65 3.9a.7.7 0 0 1-1.15-.54V29A3.2 3.2 0 0 1 13 25.8V12.2Z" fill="#fff"/>
  <circle cx="16.4" cy="18.6" r="1.55" fill="#159c62"/>
  <circle cx="20" cy="18.6" r="1.55" fill="#159c62"/>
  <circle cx="23.6" cy="18.6" r="1.55" fill="#159c62"/>
</svg>
